<?xml version="1.0" standalone="no"?>
<!DOCTYPE svg PUBLIC "-//W3C//DTD SVG 20010904//EN"
 "http://www.w3.org/TR/2001/REC-SVG-20010904/DTD/svg10.dtd">
<svg version="1.0" xmlns="http://www.w3.org/2000/svg"
 width="131.000000pt" height="158.000000pt" viewBox="0 0 131.000000 158.000000"
 preserveAspectRatio="xMidYMid meet">

<g transform="translate(0.000000,158.000000) scale(0.100000,-0.100000)"
fill="#000000" stroke="none">
<path d="M290 1495 c0 -83 -1 -85 -40 -137 -22 -29 -43 -63 -46 -75 -6 -21
-12 -23 -80 -23 -43 0 -74 -4 -74 -10 0 -6 30 -10 70 -10 78 0 80 -3 54 -65
-14 -34 -14 -39 2 -56 20 -22 33 -17 15 5 -7 8 -11 25 -9 38 2 17 10 23 28 23
22 0 26 -5 30 -41 l5 -41 16 33 c9 19 12 31 7 28 -5 -4 -16 3 -24 15 -8 12
-22 21 -30 21 -18 0 -11 35 18 97 26 56 107 136 130 130 10 -3 16 -1 13 4 -4
5 7 17 22 26 27 17 28 21 22 73 l-6 55 -3 -60 -3 -60 -7 60 -7 60 -3 -65 -3
-65 -7 65 -7 65 -3 -70 -4 -70 -6 70 -6 70 -4 -75 -4 -75 -6 75 -6 75 -2 -77
c-3 -105 -22 -113 -22 -9 0 47 -4 81 -10 81 -6 0 -10 -35 -10 -85z"/>
<path d="M440 1530 c0 -27 5 -50 10 -50 6 0 10 23 10 50 0 28 -4 50 -10 50 -5
0 -10 -22 -10 -50z"/>
<path d="M482 1538 l-2 -48 35 0 c38 0 55 -20 55 -67 1 -15 8 -39 16 -53 9
-14 13 -17 10 -7 -18 56 -18 67 -2 67 9 0 16 7 16 15 0 8 -8 15 -18 15 -23 0
-40 33 -45 85 l-4 40 -3 -45 -3 -45 -7 45 -7 45 -3 -45 -3 -45 -7 45 -7 45 -3
-45 -3 -45 -7 45 -7 45 -1 -47z"/>
<path d="M1140 1455 c0 -58 2 -65 20 -65 19 0 20 -4 14 -70 l-7 -70 57 0 56 0
0 135 0 135 -70 0 -70 0 0 -65z"/>
<path d="M481 1393 c-1 -12 4 -25 9 -28 12 -7 12 2 0 30 -8 19 -9 19 -9 -2z"/>
<path d="M722 1402 c-13 -9 -6 -42 8 -42 5 0 12 10 15 21 6 17 9 19 17 8 8
-12 9 -11 5 1 -4 18 -27 23 -45 12z"/>
<path d="M370 1361 l-20 -40 30 -21 c17 -12 27 -26 24 -35 -3 -8 4 -28 15 -44
26 -36 20 -73 -13 -95 -44 -28 -70 -119 -46 -156 8 -11 9 -8 4 13 -9 41 2 71
46 122 44 50 51 86 24 123 -26 38 -11 54 45 50 27 -1 47 0 44 5 -2 4 -28 7
-56 7 -37 1 -59 6 -77 21 -21 18 -23 22 -9 32 12 10 22 57 12 57 -1 0 -12 -18
-23 -39z"/>
<path d="M788 1353 c-24 -6 -23 -15 3 -31 24 -15 24 -15 33 16 8 23 2 25 -36
15z"/>
<path d="M1140 1330 c0 -11 4 -20 9 -20 5 0 7 9 4 20 -3 11 -7 20 -9 20 -2 0
-4 -9 -4 -20z"/>
<path d="M300 1331 c0 -6 -12 -16 -27 -23 -58 -28 -32 -70 30 -50 30 10 30 10
-10 5 -36 -5 -43 -3 -43 11 0 10 11 19 30 23 21 4 30 11 30 24 0 11 -2 19 -5
19 -3 0 -5 -4 -5 -9z"/>
<path d="M596 1314 c-6 -21 -9 -24 -21 -14 -21 17 -19 1 3 -23 12 -13 17 -36
17 -72 0 -79 13 -52 19 37 3 43 7 82 11 88 3 5 0 10 -8 10 -8 0 -18 -12 -21
-26z"/>
<path d="M946 1314 c-10 -25 -8 -28 25 -43 22 -10 29 -19 27 -35 -3 -18 -10
-21 -53 -21 -47 0 -50 -2 -53 -26 -3 -24 2 -29 41 -42 41 -14 44 -14 56 5 8
13 19 18 32 15 10 -3 19 -2 19 3 0 4 10 10 22 13 18 5 19 8 8 21 -11 14 -9 16
8 16 16 0 20 4 15 18 -13 33 -30 44 -51 31 -16 -10 -23 -8 -40 9 -11 11 -19
22 -17 24 2 2 -4 9 -15 15 -15 10 -19 9 -24 -3z"/>
<path d="M883 1310 c3 -8 7 -25 11 -37 6 -19 4 -22 -21 -20 -23 2 -29 -3 -31
-23 -2 -13 -10 -33 -18 -44 -20 -29 -17 -51 7 -62 41 -18 73 -152 46 -188 -13
-18 -14 -15 -10 30 4 39 1 54 -14 73 -14 17 -24 22 -34 15 -8 -5 -22 -7 -31
-6 -10 2 -26 -2 -35 -8 -15 -10 -15 -11 -1 -6 23 7 31 -5 11 -19 -14 -11 -14
-14 7 -33 33 -31 49 -66 38 -86 -6 -11 -5 -16 4 -16 9 0 9 -3 -2 -10 -23 -15
-25 -13 -25 30 0 28 -8 47 -26 67 -15 15 -29 40 -33 55 -10 42 -39 30 -50 -20
-5 -24 -15 -42 -22 -42 -18 0 -18 -24 1 -59 8 -16 11 -32 7 -36 -4 -5 -1 -5 6
-1 7 4 9 12 6 18 -4 6 0 14 7 19 12 8 12 11 -1 19 -11 7 -12 10 -2 10 9 0 11
7 7 20 -7 21 9 28 20 9 4 -6 14 -8 22 -4 13 4 14 3 3 -10 -10 -12 -10 -15 4
-15 9 0 16 -4 16 -10 0 -5 -5 -10 -11 -10 -5 0 -7 -5 -4 -10 4 -6 8 -24 10
-40 3 -20 0 -28 -9 -24 -25 10 -36 -19 -19 -54 19 -39 26 -40 52 -5 14 17 19
33 15 47 -6 18 -5 19 8 8 12 -10 18 -8 32 7 10 11 15 25 11 31 -3 6 -3 9 2 8
5 -2 25 11 45 27 32 27 36 35 34 71 -1 24 -9 49 -19 59 -10 9 -16 22 -14 29 5
14 67 16 85 3 8 -6 12 -6 12 1 0 6 -4 13 -10 17 -5 3 -7 12 -4 20 4 9 -4 16
-23 21 -15 3 -38 13 -50 20 -44 28 -18 118 27 94 23 -12 60 -13 60 -1 0 5 -13
11 -30 15 -22 4 -30 11 -31 28 -1 20 -2 21 -6 3 -5 -17 -7 -16 -19 10 -8 17
-13 23 -11 15z m-43 -410 c0 -5 -4 -10 -10 -10 -5 0 -10 5 -10 10 0 6 5 10 10
10 6 0 10 -4 10 -10z m-80 -121 c0 -6 -4 -7 -10 -4 -5 3 -10 11 -10 16 0 6 5
7 10 4 6 -3 10 -11 10 -16z"/>
<path d="M1025 1300 c-3 -5 -1 -10 4 -10 6 0 11 5 11 10 0 6 -2 10 -4 10 -3 0
-8 -4 -11 -10z"/>
<path d="M816 1264 c-5 -14 -4 -15 9 -4 17 14 19 20 6 20 -5 0 -12 -7 -15 -16z"/>
<path d="M348 1236 c4 -34 -8 -50 -43 -59 -16 -4 -15 -5 6 -6 36 -1 62 29 53
63 -9 38 -20 40 -16 2z"/>
<path d="M758 1263 c7 -3 16 -2 19 1 4 3 -2 6 -13 5 -11 0 -14 -3 -6 -6z"/>
<path d="M707 1253 c-4 -3 -7 -24 -7 -45 0 -36 1 -38 21 -28 19 11 20 9 17
-20 -1 -18 0 -32 5 -31 4 1 14 1 22 1 8 0 15 7 15 16 0 9 9 29 21 45 11 16 18
33 14 38 -3 5 -28 9 -55 7 -47 -2 -65 6 -37 17 6 3 7 6 1 6 -6 1 -14 -2 -17
-6z"/>
<path d="M510 1178 c0 -11 12 -10 30 2 12 7 10 9 -8 7 -12 0 -22 -5 -22 -9z"/>
<path d="M1001 1147 c-9 -12 -8 -18 4 -31 19 -19 31 -20 41 -5 3 6 -2 20 -13
31 -17 16 -21 17 -32 5z"/>
<path d="M1045 1150 c-3 -5 -2 -10 4 -10 5 0 13 5 16 10 3 6 2 10 -4 10 -5 0
-13 -4 -16 -10z"/>
<path d="M1161 1144 c0 -11 3 -14 6 -6 3 7 2 16 -1 19 -3 4 -6 -2 -5 -13z"/>
<path d="M1197 1127 c-7 -24 -10 -27 -22 -17 -11 9 -15 9 -15 1 0 -6 -11 -11
-25 -11 -19 0 -25 5 -26 23 -1 16 -2 18 -6 5 -2 -10 -13 -18 -23 -18 -42 0
-25 -112 18 -118 14 -2 22 -9 19 -17 -3 -7 0 -18 6 -24 6 -6 7 -11 1 -11 -5 0
-15 5 -21 11 -7 7 -12 6 -16 -6 -5 -11 1 -17 24 -22 20 -4 26 -9 18 -13 -6 -5
-9 -15 -6 -25 4 -9 11 -14 16 -10 6 3 8 12 5 19 -5 14 23 26 63 26 19 0 20 3
10 25 -11 22 -26 29 -64 28 -18 -1 -16 12 3 31 8 9 11 16 5 16 -6 0 -11 8 -11
18 0 13 -2 14 -9 3 -5 -8 -11 -9 -15 -3 -10 16 4 41 20 35 8 -3 14 0 14 6 0 6
6 8 13 5 8 -3 20 2 27 11 18 21 44 19 38 -3 -4 -15 -1 -18 18 -14 15 3 24 11
24 23 0 15 -7 19 -34 19 -25 0 -36 5 -38 18 -3 12 -6 9 -11 -11z m-30 -194
c-9 -9 -20 -13 -24 -9 -4 4 1 14 11 22 25 18 35 8 13 -13z"/>
<path d="M600 1106 c0 -22 3 -27 11 -19 8 8 8 16 0 30 -9 16 -10 14 -11 -11z"/>
<path d="M150 1107 c0 -14 -11 -17 -52 -19 l-53 -2 48 -3 c33 -3 47 -8 47 -19
0 -10 -14 -14 -47 -16 l-48 -1 43 -4 c27 -3 42 -9 42 -18 0 -21 -52 -95 -67
-95 -7 0 -13 -4 -13 -10 0 -5 7 -10 15 -10 8 0 15 -4 15 -10 0 -5 -7 -10 -15
-10 -22 0 -18 -17 5 -23 10 -3 21 0 23 7 6 17 35 -11 39 -37 2 -14 6 -18 11
-10 4 6 -3 24 -17 40 -40 48 -38 79 9 132 19 21 35 42 35 47 0 4 -7 -1 -15
-12 -17 -23 -19 -12 -4 39 6 22 8 41 5 45 -3 3 -6 -2 -6 -11z"/>
<path d="M513 1086 c-9 -19 -21 -33 -27 -32 -6 2 -8 1 -3 -1 14 -8 7 -35 -14
-51 -13 -12 -22 -32 -24 -62 l-5 -45 11 42 c6 24 21 51 35 62 13 10 24 26 24
35 0 9 7 32 14 51 19 45 11 45 -11 1z"/>
<path d="M313 1100 c-15 -6 -23 -17 -22 -32 0 -15 3 -18 6 -8 3 8 15 23 27 32
23 20 21 21 -11 8z"/>
<path d="M231 1055 c-1 -11 5 -32 13 -46 12 -24 11 -26 -14 -36 -16 -6 -33
-21 -40 -34 -12 -23 -11 -23 17 4 16 15 33 27 38 27 16 0 135 -84 135 -95 0
-14 -77 -12 -91 3 -7 6 -19 12 -27 12 -7 0 0 -12 17 -26 30 -25 30 -26 14 -52
-12 -21 -10 -20 11 6 15 17 36 32 47 32 30 0 77 -27 84 -49 7 -24 37 -51 61
-55 11 -3 27 -8 38 -12 15 -6 17 -4 11 15 -4 13 -1 29 7 39 8 11 2 9 -18 -6
-36 -24 -32 -26 -109 63 -52 61 -62 70 -115 108 -31 23 -50 47 -62 77 -9 25
-17 36 -17 25z"/>
<path d="M589 1000 c-3 -63 -7 -75 -23 -78 -16 -3 -18 1 -14 33 4 33 3 35 -9
19 -20 -28 -16 -48 17 -79 l31 -30 -3 -160 -3 -160 -25 0 c-19 0 -24 5 -22 19
2 11 -1 15 -7 11 -29 -17 9 -62 42 -49 10 3 16 -5 21 -27 12 -60 -32 -76 -101
-38 -91 50 -103 60 -104 87 -2 25 -2 25 -6 4 -8 -44 92 -122 161 -125 29 -2
36 -6 36 -22 0 -28 -14 -46 -31 -42 -8 2 -4 -1 9 -7 17 -7 22 -18 22 -45 0
-22 -8 -43 -22 -59 -16 -17 -18 -23 -8 -21 8 1 23 -1 32 -5 10 -5 23 -6 30 -3
7 3 2 6 -11 6 -17 1 -22 5 -17 17 3 9 6 19 6 24 0 13 52 22 63 11 6 -6 10 -24
9 -40 -1 -34 12 -49 24 -29 6 9 10 5 14 -12 5 -20 13 -26 43 -28 20 -2 37 0
37 5 -1 9 -67 53 -80 53 -5 0 -14 9 -20 20 -6 12 -7 20 -1 20 5 0 11 -4 13
-10 5 -14 78 -42 78 -30 0 6 -7 13 -15 16 -24 10 -17 24 12 24 14 0 24 3 20 6
-3 4 1 13 9 21 8 9 16 14 17 12 1 -2 8 -15 15 -28 12 -20 12 -25 0 -32 -7 -5
-20 -9 -29 -9 -9 0 -16 -7 -16 -15 0 -9 6 -14 13 -11 8 3 11 0 8 -8 -3 -8 -1
-17 5 -20 5 -4 12 3 16 14 7 23 16 25 32 9 17 -17 63 -2 63 20 0 19 -21 43
-36 40 -22 -4 -35 2 -28 12 5 9 -7 44 -23 68 -2 3 -9 -3 -16 -12 -11 -14 -117
-61 -124 -54 -3 3 47 28 90 46 15 6 30 19 34 28 3 10 13 26 21 35 8 10 12 25
8 35 -4 9 -4 14 0 10 4 -4 14 7 21 24 11 27 16 30 42 24 38 -8 67 8 73 39 4
21 0 25 -28 30 -18 4 -46 19 -62 34 -27 25 -32 26 -51 14 -17 -12 -24 -12 -36
-2 -13 11 -13 14 0 27 8 8 20 24 26 35 9 18 9 18 -10 9 -11 -6 -29 -11 -41
-11 -28 0 -75 -36 -59 -45 6 -4 15 -2 19 5 5 8 9 5 12 -8 4 -15 0 -22 -15 -26
-12 -3 -24 -1 -28 5 -10 17 -31 -18 -24 -41 3 -11 10 -18 15 -15 5 3 7 12 3
20 -3 8 0 15 6 15 6 0 11 -11 11 -25 0 -21 -5 -25 -28 -25 -15 0 -33 5 -40 12
-9 9 -12 7 -12 -10 0 -14 -6 -22 -16 -22 -10 0 -14 6 -11 14 3 8 1 17 -6 20
-9 3 -9 5 1 5 6 1 12 8 12 16 0 8 3 15 8 15 4 0 14 13 24 29 9 16 31 37 50 47
44 23 51 35 24 49 -38 20 -66 24 -66 10 0 -19 25 -36 44 -29 9 3 16 1 16 -5 0
-14 -47 -15 -55 -1 -3 6 -21 10 -38 10 -22 0 -28 3 -18 9 11 7 11 10 0 15 -11
5 -11 7 -1 12 6 3 12 12 12 19 0 7 -6 16 -12 18 -10 4 -10 6 0 6 14 1 17 41 2
41 -16 0 -12 30 6 48 14 13 14 17 3 20 -31 10 -38 23 -27 48 6 13 15 24 19 24
4 0 3 16 -1 35 -5 23 -4 36 4 39 8 3 8 7 0 13 -7 4 -14 17 -16 28 -3 11 -7
-14 -9 -55z m61 -375 c0 -8 -4 -15 -9 -15 -5 0 -16 -3 -25 -6 -12 -4 -16 0
-16 15 0 16 6 21 25 21 16 0 25 -6 25 -15z m210 -74 c0 -34 -6 -44 -37 -69
-51 -40 -97 -62 -128 -62 -20 0 -25 -5 -25 -26 0 -23 3 -26 25 -22 20 4 23 3
14 -8 -16 -20 -37 -17 -44 6 -3 11 -13 20 -21 20 -18 0 -18 -8 1 -26 17 -17
18 -24 7 -41 -10 -16 -62 -28 -62 -14 0 6 7 11 15 11 8 0 15 5 15 10 0 6 -7
10 -15 10 -20 0 -19 27 1 38 11 6 13 11 5 16 -17 11 -13 56 5 63 9 3 19 2 23
-3 16 -23 72 -14 135 21 68 38 82 55 66 85 -13 25 -13 30 5 30 11 0 15 -11 15
-39z"/>
<path d="M1180 1043 c0 -17 6 -23 21 -23 11 0 19 5 17 11 -2 6 -7 10 -12 9 -5
-1 -13 4 -17 12 -6 9 -9 7 -9 -9z"/>
<path d="M1232 1010 c0 -14 2 -19 5 -12 2 6 2 18 0 25 -3 6 -5 1 -5 -13z"/>
<path d="M650 1010 c0 -5 5 -10 10 -10 6 0 10 5 10 10 0 6 -4 10 -10 10 -5 0
-10 -4 -10 -10z"/>
<path d="M932 978 c5 -15 28 -18 29 -3 0 6 -7 12 -17 13 -10 3 -15 -1 -12 -10z"/>
<path d="M990 980 c0 -5 6 -13 14 -17 8 -4 24 -25 36 -45 15 -27 29 -38 45
-38 22 0 23 3 16 39 -1 2 -8 -2 -16 -9 -13 -10 -15 -9 -15 9 0 11 -5 21 -12
21 -6 0 -3 9 7 20 22 24 12 39 -15 22 -12 -7 -21 -8 -25 -2 -8 13 -35 13 -35
0z"/>
<path d="M905 893 l-50 -37 35 -8 c26 -5 38 -3 46 8 6 7 18 14 27 14 12 0 11
-6 -9 -27 -22 -23 -23 -28 -10 -47 7 -12 25 -21 38 -21 21 -1 27 6 38 45 l13
45 7 -35 c4 -19 8 -29 9 -22 0 6 7 12 14 12 14 1 52 50 38 50 -6 0 -20 -10
-32 -22 l-22 -23 6 24 c4 15 -2 33 -15 52 -30 41 -70 38 -133 -8z m96 -16
c-10 -9 -11 -8 -5 6 3 10 9 15 12 12 3 -3 0 -11 -7 -18z"/>
<path d="M1210 860 c0 -5 16 -10 35 -10 19 0 35 5 35 10 0 6 -16 10 -35 10
-19 0 -35 -4 -35 -10z"/>
<path d="M205 807 c9 -88 69 -137 125 -103 30 17 50 14 89 -16 13 -10 32 -16
42 -13 10 3 36 -7 64 -26 25 -17 49 -29 52 -26 3 3 -13 15 -36 27 -23 11 -41
25 -41 30 0 6 -13 10 -28 10 -16 0 -37 9 -47 20 -20 23 -83 27 -113 9 -27 -17
-80 13 -88 49 -3 15 -10 41 -15 57 -7 25 -8 21 -4 -18z"/>
<path d="M58 833 c7 -3 16 -2 19 1 4 3 -2 6 -13 5 -11 0 -14 -3 -6 -6z"/>
<path d="M833 811 c-17 -11 -34 -29 -37 -39 -4 -11 -18 -28 -32 -36 -20 -14
-22 -20 -14 -36 13 -24 37 -26 62 -3 26 24 106 34 117 15 13 -24 34 -3 26 27
-9 37 -53 91 -73 91 -9 0 -31 -9 -49 -19z"/>
<path d="M59 811 c11 -7 11 -15 2 -41 -6 -18 -8 -37 -4 -44 5 -6 10 1 13 18 7
41 27 43 36 4 4 -18 9 -27 12 -20 2 8 -4 31 -13 53 -13 27 -24 39 -39 39 -16
0 -18 -2 -7 -9z"/>
<path d="M1199 807 c5 -5 26 -7 47 -5 l39 3 -47 5 c-26 3 -43 1 -39 -3z"/>
<path d="M656 763 c-11 -11 -6 -21 14 -26 12 -3 20 0 20 8 0 14 -25 27 -34 18z"/>
<path d="M1010 722 c0 -5 11 -14 25 -20 22 -10 25 -9 25 8 0 15 -7 20 -25 20
-14 0 -25 -4 -25 -8z"/>
<path d="M1115 710 c-3 -5 -2 -10 4 -10 5 0 13 5 16 10 3 6 2 10 -4 10 -5 0
-13 -4 -16 -10z"/>
<path d="M68 675 c2 -14 8 -25 12 -25 10 0 1 38 -10 45 -4 2 -5 -7 -2 -20z"/>
<path d="M997 683 c4 -11 3 -14 -5 -9 -19 11 -52 -4 -62 -27 -8 -22 -8 -22
-16 -2 -14 37 -44 47 -44 14 0 -26 52 -79 77 -79 10 0 25 14 34 33 9 17 21 31
27 30 16 -4 35 25 28 42 -3 8 -14 15 -25 15 -15 0 -19 -5 -14 -17z"/>
<path d="M1105 661 c-10 -17 12 -21 25 -6 10 12 10 15 -3 15 -9 0 -18 -4 -22
-9z"/>
<path d="M370 642 c0 -7 9 -17 19 -24 16 -10 18 -15 8 -27 -7 -8 0 -6 15 4 21
16 23 21 10 24 -10 1 -25 10 -34 19 -11 9 -18 11 -18 4z"/>
<path d="M833 643 c-16 -6 -17 -33 -3 -33 11 0 26 28 19 34 -2 2 -10 1 -16 -1z"/>
<path d="M90 620 c0 -5 4 -18 9 -28 5 -9 25 -52 45 -94 20 -42 41 -80 46 -83
6 -3 11 -25 11 -48 l2 -42 7 35 7 35 11 -25 c6 -14 11 -19 12 -10 0 8 12 -5
25 -30 21 -38 24 -59 25 -142 0 -53 5 -100 10 -103 6 -4 10 27 10 85 0 88 1
90 20 80 17 -9 20 -22 22 -98 l2 -87 3 83 c3 72 6 82 18 72 11 -9 15 -34 15
-86 0 -43 4 -74 10 -74 6 0 10 28 10 65 0 65 6 75 28 53 9 -9 12 -9 12 0 0 6
-21 26 -46 44 -99 72 -114 88 -115 127 0 25 -3 31 -8 18 -14 -37 -132 117
-161 211 -13 41 -30 65 -30 42z"/>
<path d="M187 606 c20 -26 27 -28 17 -3 -3 8 -12 18 -20 21 -11 4 -10 0 3 -18z"/>
<path d="M340 610 c-8 -5 -12 -12 -9 -15 4 -3 12 1 19 10 14 17 11 19 -10 5z"/>
<path d="M1075 594 c-16 -7 -26 -13 -21 -14 5 0 3 -7 -4 -15 -16 -19 -13 -22
31 -30 41 -8 61 9 53 42 -8 28 -23 33 -59 17z"/>
<path d="M260 581 c-50 -7 -51 -9 -18 -77 23 -50 14 -79 -16 -49 -9 9 -16 13
-16 8 0 -14 22 -33 38 -33 8 0 28 -10 45 -22 l31 -22 -19 26 c-11 15 -23 28
-27 28 -5 0 -8 6 -8 14 0 9 7 12 20 9 11 -3 27 0 35 7 12 10 18 3 40 -45 27
-61 31 -90 15 -100 -6 -3 -10 -19 -10 -35 0 -32 23 -50 62 -49 18 0 15 3 -12
12 -42 15 -52 51 -21 84 17 18 18 23 6 39 -8 11 -15 28 -15 39 0 11 -11 34
-24 50 -21 25 -28 28 -43 19 -22 -14 -73 8 -73 30 0 8 -3 21 -6 30 -4 10 -1
16 7 16 8 1 28 7 44 15 33 15 31 15 -35 6z"/>
<path d="M660 561 c0 -6 4 -13 10 -16 6 -3 7 1 4 9 -7 18 -14 21 -14 7z"/>
<path d="M870 411 c-36 -97 -11 -100 42 -6 9 17 21 29 27 28 6 -2 11 2 11 8 0
6 -9 9 -20 6 -10 -3 -18 0 -17 5 1 6 -3 12 -9 15 -6 2 -21 -23 -34 -56z"/>
<path d="M1122 415 c0 -16 2 -22 5 -12 2 9 2 23 0 30 -3 6 -5 -1 -5 -18z"/>
<path d="M915 370 c-3 -5 -2 -10 4 -10 5 0 13 5 16 10 3 6 2 10 -4 10 -5 0
-13 -4 -16 -10z"/>
<path d="M890 321 c0 -13 28 -22 35 -11 3 5 12 7 20 3 8 -3 15 -1 15 4 0 5
-16 10 -35 11 -19 2 -35 -2 -35 -7z"/>
<path d="M1050 205 l0 -95 40 0 40 0 0 95 0 95 -40 0 -40 0 0 -95z"/>
<path d="M468 253 c7 -3 16 -2 19 1 4 3 -2 6 -13 5 -11 0 -14 -3 -6 -6z"/>
<path d="M588 193 c6 -2 18 -2 25 0 6 3 1 5 -13 5 -14 0 -19 -2 -12 -5z"/>
<path d="M938 183 c12 -2 32 -2 45 0 12 2 2 4 -23 4 -25 0 -35 -2 -22 -4z"/>
<path d="M470 113 c0 -71 1 -73 25 -73 24 0 25 3 25 55 0 41 -4 55 -15 55 -7
0 -19 8 -24 18 -8 13 -10 -1 -11 -55z"/>
<path d="M538 163 c-2 -5 -1 -35 2 -68 l6 -60 4 68 c4 58 -1 85 -12 60z"/>
<path d="M763 144 c-8 -20 8 -36 26 -25 15 10 8 41 -9 41 -6 0 -13 -7 -17 -16z"/>
<path d="M687 143 c-4 -3 -7 -13 -7 -21 0 -9 -8 -24 -17 -34 -16 -17 -16 -20
1 -36 15 -15 18 -15 27 -2 5 8 7 28 4 44 -3 16 0 35 6 42 11 14 -2 20 -14 7z"/>
</g>
</svg>
